<svg fill="#22c55e" height="181px" width="181px" version="1.1" id="Layer_1"
    xmlns="http://www.w3.org/2000/svg" xmlns:xlink="http://www.w3.org/1999/xlink"
    viewBox="-51.2 -51.2 614.40 614.40" xml:space="preserve" stroke="#22c55e"
    stroke-width="3.5840000000000005" transform="rotate(0)matrix(1, 0, 0, 1, 0, 0)"><g id="SVGRepo_bgCarrier" stroke-width="0"></g><g id="SVGRepo_tracerCarrier" stroke-linecap="round" stroke-linejoin="round" stroke="#22c55e" stroke-width="28.672000000000004"> <g> <g> <path d="M256,0C114.608,0,0,114.608,0,256s114.608,256,256,256s256-114.608,256-256S397.392,0,256,0z M256,496 C123.664,496,16,388.336,16,256S123.664,16,256,16s240,107.664,240,240S388.336,496,256,496z"></path> </g> </g> <g> <g> <polygon points="362.224,155.76 212.016,322.656 148.72,259.36 137.408,270.672 212.64,345.904 374.128,166.464 "></polygon> </g> </g> </g><g id="SVGRepo_iconCarrier"> <g> <g> <path d="M256,0C114.608,0,0,114.608,0,256s114.608,256,256,256s256-114.608,256-256S397.392,0,256,0z M256,496 C123.664,496,16,388.336,16,256S123.664,16,256,16s240,107.664,240,240S388.336,496,256,496z"></path> </g> </g> <g> <g> <polygon points="362.224,155.76 212.016,322.656 148.72,259.36 137.408,270.672 212.64,345.904 374.128,166.464 "></polygon> </g> </g> </g></svg>